<?xml version="1.0" encoding="utf-8"?>
<!-- Generator: Adobe Illustrator 19.1.1, SVG Export Plug-In . SVG Version: 6.00 Build 0)  -->
<svg version="1.1" id="svg2931" xmlns:svg="http://www.w3.org/2000/svg"
	 xmlns="http://www.w3.org/2000/svg" xmlns:xlink="http://www.w3.org/1999/xlink" x="0px" y="0px" viewBox="-418 213.5 122 135.5"
	 style="enable-background:new -418 213.5 122 135.5;" xml:space="preserve">
<path d="M-373,285.9l8-4.6l-8-4.6l-7,3.9l-1.3,0.7l1.3,0.7C-380,282-375.6,284.4-373,285.9z M-373,277.8l6,3.5l-6,3.5l-6.3-3.5
	C-378.3,280.7-374.4,278.5-373,277.8z M-345,292.8l-8-4.6v9.2l6.9,4.1l1.3,0.8l0-1.5C-344.9,300.8-344.9,295.8-345,292.8z
	 M-352,296.9v-6.9l6,3.5l0.1,7.2L-352,296.9z M-353,274.3l8-4.6l0.1-8l0-1.5l-1.3,0.8c0,0-4.3,2.6-6.9,4.1L-353,274.3L-353,274.3z
	 M-352,265.7l6.1-3.7c0,1.1-0.1,5.6-0.1,7.2l-6,3.5V265.7z M-341,276.6l-8,4.6l8,4.6l7-3.9l1.3-0.7l-1.3-0.7
	C-334,280.5-338.4,278.1-341,276.6z M-341,284.7l-6-3.5l6-3.5l6.3,3.5L-341,284.7z M-369,269.7l8,4.6v-9.2l-6.9-4.1l-1.3-0.8l0,1.5
	C-369.1,261.7-369.1,266.7-369,269.7z M-362,265.7v6.9l-6-3.5l-0.1-7.2L-362,265.7z M-361,288.2l-8,4.6l-0.1,8l0,1.5l1.3-0.8
	c0,0,4.3-2.6,6.9-4.1V288.2z M-362,296.9l-6.1,3.7l0.1-7.2l6-3.5V296.9z M-312.1,291.8l-1.5-2.6l-13.7,7.6l-10.7-6.2l6.7-3.7
	l-1.5-2.6l-8.2,4.6l-13.1-7.6l13.1-7.6l8.2,4.6l1.5-2.6l-6.7-3.7l10.7-6.2l13.7,7.6l1.5-2.6l-12.1-6.7l12.4-7.2l-1.5-2.6l-12.4,7.2
	l0.2-13.9l-3-0.1l-0.3,15.7l-10.7,6.2l0.1-7.6l-3,0l-0.2,9.4l-13.1,7.6v-15.1l8.1-4.8l-1.5-2.6l-6.5,3.9v-12.3l13.4-8.1l-1.5-2.6
	l-11.9,7.1V230h-3v14.4l-11.9-7.1l-1.5,2.6l13.4,8.1v12.3l-6.5-3.9l-1.5,2.6l8.1,4.8v15.1l-13.1-7.6l-0.2-9.4l-3,0l0.1,7.6
	l-10.7-6.2l-0.3-15.7l-3,0.1l0.2,13.9l-12.4-7.2l-1.5,2.6l12.4,7.2l-12.1,6.7l1.5,2.6l13.7-7.6l10.7,6.2l-6.7,3.7l1.5,2.6l8.2-4.6
	l13.1,7.6l-13.1,7.6l-8.2-4.6l-1.5,2.6l6.7,3.7l-10.7,6.2l-13.7-7.6l-1.5,2.6l12.1,6.7l-12.4,7.2l1.5,2.6l12.4-7.2l-0.2,13.9l3,0.1
	l0.3-15.7l10.7-6.2l-0.1,7.6l3,0.1l0.2-9.4l13.1-7.6v15.1l-8.1,4.8l1.5,2.6l6.5-3.9v12.3l-13.4,8.1l1.5,2.6l11.9-7.1v14.4h3v-14.4
	l11.9,7.1l1.5-2.6l-13.4-8.1v-12.3l6.5,3.9l1.5-2.6l-8.1-4.8V284l13.1,7.6l0.2,9.4l3-0.1l-0.1-7.6l10.7,6.2l0.3,15.7l3-0.1
	l-0.2-13.9l12.4,7.2l1.5-2.6l-12.4-7.2L-312.1,291.8z M-301,304.5l-0.3-0.4l-0.5,0l-6.2-0.2l-9.3-5.4l6.7-3.7l2.2-1.2l0.9-0.5
	l-0.5-0.9l-1.2-2.2l-1.5-2.6l-1.2-2.2l-0.5-0.9l-0.9,0.5l-2.2,1.2l-12,6.6l-3.6-2.1l1.2-0.7l2.2-1.2l0.9-0.5l-0.5-0.9l-1.2-2.2
	c0,0-1.5-2.6-1.5-2.6c0,0-0.4-0.7-0.7-1.2l0.7-1.2c0,0,1.5-2.6,1.5-2.6l1.2-2.2l0.5-0.9l-0.9-0.5l-2.2-1.2l-1.2-0.7l3.6-2.1l12,6.6
	l2.2,1.2l0.9,0.5l0.5-0.9l1.2-2.2l1.5-2.6l1.2-2.2l0.5-0.9l-0.9-0.5l-2.2-1.2l-6.7-3.7l9.3-5.4l6.2-0.2l0.5,0l0.3-0.4l4.6-6.1
	l0.4-0.5l-0.3-0.6l-4-6.9l-0.3-0.6l-0.7,0.1l-7.6,0.9l-0.5,0.1l-0.3,0.4l-3.3,5.2l-9.3,5.4l0.1-7.7l0-2.5l0-1l-1,0l-2.5,0l-3-0.1
	l-2.5,0l-1,0l0,1l0,2.5l-0.2,13.7l-3.6,2.1l0-1.4l0-2.5l0-1l-1,0l-2.5,0c0,0-3-0.1-3-0.1l-1.4,0l-0.7-1.2l-1.5-2.6l-1.3-2.1
	l-0.5-0.9l-0.9,0.5l-2.1,1.3l-1.2,0.7v-4.1l11.7-7l2.1-1.3l0.9-0.5l-0.5-0.9l-1.3-2.1l-1.5-2.6l-1.3-2.1l-0.5-0.9l-0.9,0.5l-2.1,1.3
	l-6.6,4v-10.8l2.9-5.5l0.2-0.4l-0.2-0.4l-3-7l-0.3-0.6h-0.7h-8h-0.7l-0.3,0.6l-3,7l-0.2,0.4l0.2,0.4l2.9,5.5v10.8l-6.6-4l-2.1-1.3
	l-0.9-0.5l-0.5,0.9l-1.3,2.1l-1.5,2.6l-1.3,2.1l-0.5,0.9l0.9,0.5l2.1,1.3c0,0,9.5,5.7,11.7,7v4.1l-1.2-0.7l-2.1-1.3l-0.9-0.5
	l-0.5,0.9l-1.3,2.1l-1.5,2.6l-0.7,1.2l-1.4,0l-3,0l-2.5,0l-1,0l0,1l0,2.5c0,0,0,0.7,0,1.4l-3.6-2.1l-0.2-13.7l0-2.5l0-1l-1,0l-2.5,0
	l-3,0.1l-2.5,0l-1,0l0,1l0,2.5l0.1,7.7l-9.3-5.4l-3.3-5.2l-0.3-0.4l-0.5-0.1l-7.6-0.9l-0.7-0.1l-0.3,0.6l-4,6.9l-0.3,0.6l0.4,0.5
	l4.6,6.1l0.3,0.4l0.5,0l6.2,0.2l9.3,5.4l-6.7,3.7l-2.2,1.2l-0.9,0.5l0.5,0.9l1.2,2.2l1.5,2.6l1.2,2.2l0.5,0.9l0.9-0.5l2.2-1.2
	l12-6.6l3.6,2.1l-1.2,0.7l-2.2,1.2l-0.9,0.5l0.5,0.9l1.2,2.2l1.5,2.6c0,0,0.4,0.7,0.7,1.2l-0.7,1.2l-1.5,2.6l-1.2,2.2l-0.5,0.9
	l0.9,0.5l2.2,1.2l1.2,0.7l-3.6,2.1l-12-6.6l-2.2-1.2l-0.9-0.5l-0.5,0.9l-1.2,2.2l-1.5,2.6l-1.2,2.2l-0.5,0.9l0.9,0.5l2.2,1.2
	l6.7,3.7l-9.3,5.4l-6.2,0.2l-0.5,0l-0.3,0.4l-4.6,6.1l-0.4,0.5l0.3,0.6l4,6.9l0.3,0.6l0.7-0.1l7.6-0.9l0.5-0.1l0.3-0.4l3.3-5.2
	l9.3-5.4l-0.1,7.7l0,2.5l0,1l1,0l2.5,0l3,0.1l2.5,0l1,0l0-1l0-2.5l0.2-13.7l3.6-2.1l0,1.4l0,2.5l0,1l1,0l2.5,0l3,0.1l1.4,0l0.7,1.2
	c0,0,1.5,2.6,1.5,2.6l1.3,2.1l0.5,0.9l0.9-0.5l2.1-1.3l1.2-0.7v4.1l-11.7,7l-2.1,1.3l-0.9,0.5l0.5,0.9l1.3,2.1l1.5,2.6l1.3,2.1
	l0.5,0.9l0.9-0.5l2.1-1.3l6.6-4v10.8l-2.9,5.4l-0.2,0.4l0.2,0.4l3,7l0.3,0.6h0.7h8h0.7l0.3-0.6l3-7l0.2-0.4l-0.2-0.4l-2.9-5.4v-10.8
	l6.6,4l2.1,1.3l0.9,0.5l0.5-0.9l1.3-2.1l1.5-2.6l1.3-2.1l0.5-0.9l-0.9-0.5l-2.1-1.3l-11.7-7v-4.1l1.2,0.7l2.1,1.3l0.9,0.5l0.5-0.9
	l1.3-2.1l1.5-2.6l0.7-1.2l1.4,0l3,0l2.5,0l1,0l0-1l0-2.5c0,0,0-0.7,0-1.4l3.6,2.1l0.2,13.7l0,2.5l0,1l1,0l2.5,0c0,0,3-0.1,3-0.1
	c0,0,2.5,0,2.5,0l1,0l0-1l0-2.5l-0.1-7.7l9.3,5.4l3.3,5.2l0.3,0.4l0.5,0.1l7.6,0.9l0.7,0.1l0.3-0.6l4-6.9l0.3-0.6l-0.4-0.5
	L-301,304.5z M-306.4,315.1l-16.8-9.7l0.2,9.5l0,2.5l-2.5,0l-3,0.1l-2.5,0l0-2.5c0,0-0.2-9.7-0.2-14.3l-5.6-3.2l0.1,3.2l0,2.5
	l-2.5,0l-3,0.1l-2,0l-1,1.7l-1.5,2.6l-1.3,2.1l-2.1-1.3l-2.7-1.6v6.5l12.2,7.3l2.1,1.3l-1.3,2.1l-1.5,2.6l-1.3,2.1l-2.1-1.3
	l-8.1-4.9V342h-8v-19.4l-8.1,4.9l-2.1,1.3l-1.3-2.1l-1.5-2.6l-1.3-2.1l2.1-1.3c0,0,8.4-5,12.2-7.3v-6.5l-2.7,1.6l-2.1,1.3l-1.3-2.1
	l-1.5-2.6l-1-1.7l-2,0l-3-0.1l-2.5,0l0-2.5l0.1-3.2l-5.6,3.2l-0.2,14.3l0,2.5l-2.5,0l-3-0.1l-2.5,0l0-2.5l0.2-9.5l-16.8,9.7l-4-6.9
	l16.8-9.7l-8.3-4.6l-2.2-1.2l1.2-2.2l1.5-2.6l1.2-2.2l2.2,1.2c0,0,8.5,4.7,12.5,6.9l5.6-3.2l-2.8-1.6l-2.2-1.2l1.2-2.2l1.5-2.6
	l1-1.7l-1-1.7l-1.5-2.6l-1.2-2.2l2.2-1.2l2.8-1.5l-5.6-3.2l-12.5,6.9l-2.2,1.2l-1.2-2.2l-1.5-2.6l-1.2-2.2l2.2-1.2l8.3-4.6
	l-16.8-9.7l4-6.9l16.8,9.7l-0.2-9.5l0-2.5l2.5,0l3-0.1l2.5,0l0,2.5c0,0,0.2,9.7,0.2,14.3l5.6,3.2l-0.1-3.2l0-2.5l2.5,0l3,0l2,0
	l1-1.7l1.5-2.6l1.3-2.1l2.1,1.3l2.7,1.6v-6.5l-12.2-7.3l-2.1-1.3l1.3-2.1l1.5-2.6l1.3-2.1l2.1,1.3l8.1,4.9v-19.4h8v19.4l8.1-4.9
	l2.1-1.3l1.3,2.1l1.5,2.6l1.3,2.1l-2.1,1.3c0,0-8.4,5-12.2,7.3v6.5l2.7-1.6l2.1-1.3l1.3,2.1l1.5,2.6l1,1.7l2,0l3,0.1l2.5,0l0,2.5
	l-0.1,3.2l5.6-3.2l0.2-14.3l0-2.5l2.5,0l3,0.1l2.5,0l0,2.5l-0.2,9.5l16.8-9.7l4,6.9l-16.8,9.7l8.3,4.6l2.2,1.2l-1.2,2.2l-1.5,2.6
	l-1.2,2.2l-2.2-1.2c0,0-8.5-4.7-12.5-6.9l-5.6,3.2l2.8,1.6l2.2,1.2l-1.2,2.2l-1.5,2.6l-1,1.7l1,1.7l1.5,2.6l1.2,2.2l-2.2,1.2
	l-2.8,1.5l5.6,3.2l12.5-6.9l2.2-1.2l1.2,2.2l1.5,2.6l1.2,2.2l-2.2,1.2l-8.3,4.6l16.8,9.7L-306.4,315.1z"/>
</svg>
