<?xml version="1.0" encoding="utf-8"?>
<!-- Generator: Adobe Illustrator 19.1.1, SVG Export Plug-In . SVG Version: 6.00 Build 0)  -->
<svg version="1.2" baseProfile="tiny" id="Layer_1" 
	 xmlns="http://www.w3.org/2000/svg" xmlns:xlink="http://www.w3.org/1999/xlink" x="0px" y="0px" viewBox="-193 -22.3 571.8 604.3"
	 xml:space="preserve"
	 height="605.3" width="573.2">
<metadata>
		<slices></slices>
		<sliceSourceBounds  height="605.3" width="573.2" x="0" y="0" bottomLeftOrigin="true"></sliceSourceBounds>
</metadata>
<g>
	<path fill="none" stroke="none" d="M79.5,581.6c0-21.5,0-43,0-65.4c-12.9,6.9-25.4,13.6-38.3,20.6
		c-4.3-7.3-8.6-14.3-13-21.8c13.3-7.2,26-15.1,39.4-21.1c9.9-4.4,13.9-10.3,12.2-20.8c-0.7-4.1-0.1-8.5-0.1-13.7
		c-24.5,13.2-48,26-72.1,39c-4.3-7.2-8.5-14.2-13-21.8c6-3.3,11.8-6.5,17.6-9.7c21.1-11.4,42.1-22.9,63.3-34.1
		c3.3-1.8,4.5-3.8,4.3-7.4c-0.3-3.8-0.1-7.6-0.1-12.7c-13.2,7.1-25.7,13.8-38.6,20.7c-4.3-7.2-8.4-14.1-12.9-21.6
		c1.7-1,3.1-1.9,4.7-2.7c14.5-7.9,29-15.7,43.4-23.7c1.5-0.9,3.3-3.1,3.3-4.7c0.1-26,0-80.4,0-80.4s-52.5,26.3-73.7,36.8
		c-2.5,1.3-3.6,2.7-3.7,5.6C1.7,360,1,377.3,0.3,394.9c-8.6,0-17,0-25.4,0c0-14.2,0-27.9,0-42.2c-4.9,2.5-9.7,4.7-14.2,7.4
		c-1,0.6-1.4,2.8-1.5,4.3c-1.1,28.6-2.1,57.3-3.1,85.9c0,1-0.1,2-0.2,3.2c-8.6,0-17.1,0-26.1,0c0.9-26.6,1.7-52.5,2.6-79.4
		c-8.6,4.3-16.6,8.1-24.4,12.5c-1.2,0.7-1.5,3.5-1.6,5.4c-0.6,15.3-0.9,30.6-1.4,45.9c-0.1,1.8-0.4,3.5-0.5,5c-8.8,0-17,0-25.2,0
		c0-14.1,0-27.7,0-42.1c-20.1,10-39.9,19.9-60.1,30c-4.1-7.4-8-14.5-12.2-22.1c20.2-10.2,40.2-20.3,60.7-30.6
		c-12.7-7.9-24.9-15.4-37.3-23c4.8-7.1,9.4-14,14.3-21.1c15,9.3,29.7,18.1,44.2,27.3c4.1,2.6,7.3,3.2,11.6,0.6
		c6-3.6,12.4-6.4,19.7-10c-23.5-14.5-46.3-28.6-69.8-43c4.7-7,9.2-13.8,14.1-21.1c5.9,3.6,11.5,7,17.2,10.4
		c20.4,12.6,40.9,25.1,61.2,37.8c2.8,1.8,5.1,2.2,8.1,0.5c3.7-2.2,7.6-3.9,12.2-6.3c-12.8-7.9-24.9-15.4-37.2-23
		c4.8-7.1,9.4-13.9,14.2-21c7.7,4.7,15.2,9.3,22.7,13.9c8.1,5,16.1,10,24.3,14.8c1.4,0.8,3.9,1.3,5.3,0.6
		c23.4-11.6,48.7-24.3,72-36.1c0.3-0.1-48.6-24.3-70.6-35.5c-2.9-1.5-5-1.4-7.7,0.4c-15.1,9.5-30.3,18.8-46,28.5
		c-4.7-7-9.3-13.8-14.3-21.1c12.3-7.6,24.4-15.1,37.4-23.1c-5.6-2.8-10.2-5.4-15.1-7.3c-1.4-0.5-3.7,0.6-5.3,1.5
		c-23.6,14.4-47.1,29-70.6,43.5c-2.4,1.5-4.8,2.9-7.8,4.7c-4.7-6.9-9.3-13.7-14.2-21c23.1-14.2,46-28.3,69.7-42.9
		c-8.6-4.4-16.4-8.6-24.4-12.3c-1.1-0.5-3.4,0.8-4.8,1.7c-15.2,9.3-30.3,18.6-46,28.3c-4.7-7-9.4-13.8-14.3-21
		c12.3-7.6,24.4-15.1,37.3-23c-20.3-10.2-40.1-20.2-60.5-30.5c4.1-7.4,8-14.6,12.1-22.1c20.2,10.1,39.9,19.9,60.1,30
		c0-14,0-27.5,0-41.8c8,0,16.3,0,25.2,0c0.1,0.9,0.5,2.3,0.5,3.8c0.5,15.3,1,30.6,1.3,46c0.1,4.1,1.2,6.7,5.2,8.5
		c6.8,3,13.4,6.5,20.9,10.3c-0.9-26.7-1.7-52.5-2.6-79.2c8.7,0,17.2,0,26.1,0c0.4,12.2,0.9,24.8,1.3,37.4c0.6,17.5,1.2,35,1.9,52.4
		c0.1,1.3,0.7,3.1,1.7,3.7c4.5,2.5,9.1,4.7,13.9,7.1c0-7.9,0.1-15.3,0-22.7c-0.1-5.3-0.2-10.7-0.5-16c-0.1-2.7,1-3.6,3.5-3.6
		c7.3,0,14.6,0,22.5,0c0.3,8.3,0.7,16.8,1,25.2c0.3,9.2,0.5,18.3,1.1,27.5c0.1,1.6,1.2,3.9,2.6,4.6c23.9,12.2,73.4,36.5,74.7,36.9
		c0-2.2-0.1-53.5,0.1-77.3c0-4.3-1.4-6.5-5.1-8.4c-14-7.3-27.9-15-41.8-22.5c-1.4-0.8-2.9-1.6-4.7-2.7c4.2-7.2,8.3-14.1,12.8-21.7
		c12.6,6.8,25.1,13.5,38.6,20.7c0-5.9,0.3-11-0.2-16c-0.1-1.4-2.3-3-3.9-3.8C49.7,112.5,23.8,98.5-2.1,84.4c-1-0.5-1.9-1.2-3.2-2
		C-1,75.1,3.2,68,7.5,60.8c24,13,47.5,25.7,72.1,39c0-9.4,0.1-17.9-0.2-26.5c0-1.1-2.1-2.4-3.4-3.1c-14.2-7.7-28.4-15.4-42.6-23.1
		c-1.6-0.9-3.2-1.8-5.2-3c4.2-7.2,8.3-14.2,12.8-21.7C53.7,29.3,66.2,36,79.4,43.1c0-22.3,0-43.9,0-65.4c9,0,18,0,27,0
		c0,21.5,0,43,0,65.4c12.9-6.9,25.4-13.7,38.3-20.6c4.3,7.2,8.5,14.1,13,21.7c-7.1,3.9-14.1,7.7-21,11.5
		c-9.1,4.9-18.2,9.8-27.2,14.8c-1.4,0.8-3.1,2.5-3.1,3.8c-0.3,8.1-0.1,16.3-0.1,25.5c24.4-13.2,48-25.9,72.1-39
		c4.3,7.2,8.5,14.3,12.9,21.8c-8.8,4.8-17.2,9.4-25.6,14c-18.6,10.1-37.2,20.2-55.8,30.1c-2.7,1.5-3.9,3.1-3.7,6.2
		c0.2,4.1,0.1,8.3,0.1,13.5c13.2-7.1,25.7-13.8,38.6-20.8c4.3,7.3,8.5,14.4,12.9,21.8c-15.6,8.5-30.7,16.9-46,24.9
		c-4,2.1-5.6,4.4-5.6,9.1c0.3,23.7,0.1,74.6,0.1,77.1c1.9-0.8,50.7-25.1,73.8-36.6c2.5-1.3,3.6-2.7,3.6-5.6
		c0.5-17.3,1.2-34.6,1.9-52.1c8.5,0,16.9,0,25.4,0c0,14.2,0,27.9,0,42.2c4.9-2.5,9.7-4.7,14.2-7.3c1-0.6,1.4-2.8,1.5-4.3
		c1.1-28.5,2-56.9,3-85.4c0-1.3,0.1-2.6,0.2-3.8c8.8,0,17.4,0,26.1,0c-0.9,26.6-1.8,52.6-2.7,79.4c8.4-4.2,16.3-8,24-12.2
		c1.3-0.7,1.9-3.7,2-5.6c0.6-15.3,1.1-30.6,1.3-46c0.1-4.2,1.1-5.9,5.7-5.6c6.8,0.4,13.6,0.1,20.2,0.1c0,14.8,0,28.4,0,42.6
		c19.9-9.9,39.8-19.8,60.1-30c4.1,7.4,8,14.5,12.2,22.1c-20.1,10.1-40,20.1-60.7,30.6c12.7,7.9,24.7,15.3,37.2,23
		c-4.8,7.1-9.4,13.9-14.2,21.1c-13.2-8.1-26.4-15.5-38.8-24.2c-7.7-5.4-14.2-6.9-22.2-1c-4.1,3-9.1,4.8-14.4,7.4
		c23.5,14.5,46.5,28.6,69.7,43c-4.8,7.1-9.4,13.9-14.2,21.1c-12.7-7.8-25-15.3-37.3-22.9c-13.5-8.3-27-16.5-40.3-25
		c-3.6-2.3-6.4-2.5-9.9-0.2c-3.3,2.1-7,3.6-11.2,5.7c12.8,7.9,24.8,15.3,37.3,23c-4.8,7.1-9.4,14-14.2,21.1
		c-14.1-8.7-28.1-16.8-41.4-25.8c-6-4-10.6-4.2-17-0.8c-21.3,11.2-43.1,21.8-65.3,32.9c1.4,1,48.1,24.7,70.3,36
		c2.8,1.4,4.8,1,7.2-0.5c15.1-9.4,30.3-18.7,46.1-28.5c4.7,6.9,9.3,13.7,14.4,21c-12.4,7.6-24.5,15.1-37.3,23.1
		c5.4,2.7,10,5.3,14.9,7.3c1.2,0.5,3.4-0.4,4.9-1.3c24.7-15.1,49.4-30.3,74.1-45.5c1.4-0.9,2.9-1.7,4.9-2.8
		c4.7,6.9,9.3,13.7,14.2,20.9c-23.2,14.3-46.1,28.4-69.9,43.1c8.6,4.3,16.3,8.3,24.2,11.9c1.2,0.5,3.4-0.4,4.8-1.3
		c15.4-9.3,30.6-18.8,46.4-28.5c4.8,7,9.4,13.9,14.3,21.1c-12.3,7.6-24.5,15.1-37.3,23c20.5,10.3,40.3,20.3,60.7,30.6
		c-4.1,7.5-8,14.6-12.1,22.1c-20.2-10.1-39.9-19.9-60.1-30c0,14.1,0,27.6,0,41.9c-7.9,0-16.3,0-25.2,0c-0.1-0.8-0.5-2.3-0.6-3.7
		c-0.5-15.5-1-31-1.3-46.5c-0.1-4-1.2-6.4-5-8.1c-6.8-3-13.4-6.6-21.1-10.3c0.9,26.7,1.7,52.7,2.6,79.4c-8.6,0-17,0-26.9,0
		c0-6.9,0.2-14.1,0-21.4c-0.7-22.5-1.6-44.9-2.3-67.4c-0.1-2.9-0.8-4.5-3.5-5.7c-4.1-1.8-8-4-12.3-6.3c0,14.3,0,27.9,0,42.2
		c-8.2,0-16.4,0-25.4,0c-0.3-8.3-0.7-16.8-1-25.4c-0.4-9.2-0.6-18.3-1.1-27.5c-0.1-1.5-1.2-3.5-2.4-4.2
		c-24-12.2-73.5-36.7-74.5-36.9c-0.1,1.5-0.2,53.3-0.4,78c0,3.7,1.2,5.6,4.4,7.3c14.1,7.4,28.2,15.1,42.2,22.7
		c1.6,0.9,3.1,1.8,4.9,2.9c-4.3,7.3-8.4,14.3-12.8,21.6c-12.7-6.8-25.2-13.6-38.6-20.8c0,5.9-0.3,10.9,0.2,15.8
		c0.1,1.4,2.2,3.1,3.7,4c25.6,14,51.2,27.8,76.9,41.7c1.3,0.7,2.5,1.5,4.2,2.5c-4.3,7.2-8.5,14.3-12.8,21.7
		c-24-13-47.7-25.8-72.2-39c0,9.2-0.2,17.5,0.2,25.8c0.1,1.4,2.1,3.1,3.7,4c14.4,7.9,29,15.7,43.5,23.6c1.3,0.7,2.6,1.5,4.1,2.4
		c-4.3,7.2-8.4,14.2-12.8,21.7c-12.7-6.8-25.2-13.6-38.4-20.6c0,22.3,0,43.9,0,65.5C97.5,581.6,88.5,581.6,79.5,581.6z"/>
</g>
</svg>
